<?xml version="1.0" encoding="utf-8"?>
<!-- Generator: Adobe Illustrator 19.2.1, SVG Export Plug-In . SVG Version: 6.00 Build 0)  -->
<svg version="1.1" id="Layer_1" xmlns="http://www.w3.org/2000/svg" xmlns:xlink="http://www.w3.org/1999/xlink" x="0px" y="0px"
	 viewBox="0 0 500 300" style="enable-background:new 0 0 500 300;" xml:space="preserve">
<style type="text/css">
	.st0{fill:#4D4D4D;}
	.st1{fill:#AAAAAA;}
	.st2{display:none;}
	.st3{display:inline;fill:#666666;}
	.st4{font-family:'OpenSans';}
	.st5{font-size:36px;}
	.st6{display:inline;}
	.st7{fill:none;stroke:#666666;stroke-width:5;stroke-miterlimit:10;}
	.st8{fill:#666666;}
	.st9{display:inline;fill:#1A1A1A;}
	.st10{display:inline;fill:#3C3C3C;}
	.st11{display:inline;fill:#808080;}
	.st12{font-family:'OpenSans-Semibold';}
	.st13{font-size:48.4988px;}
	.st14{fill:#1A1A1A;}
	.st15{display:inline;fill:#333333;}
	.st16{display:inline;fill:none;stroke:#666666;stroke-width:5;stroke-miterlimit:10;}
	.st17{fill:#1A1A1A;stroke:#4D4D4D;stroke-width:6;stroke-miterlimit:10;}
	.st18{fill:#5A5A5A;}
	.st19{fill:#808080;}
	.st20{fill:#3C3C3C;}
	.st21{fill:#505050;}
	.st22{fill:#333333;}
</style>
<rect y="0.7" class="st0" width="500" height="298.7"/>
<g>
	<polygon class="st1" points="480.6,168.5 440.5,128.4 379.6,189.2 240.4,50 109.6,180.8 78.5,149.7 21.6,206.6 21.6,283.6 
		480.6,283.6 	"/>
</g>
<g id="Layer_1_1_" class="st2">
	<text transform="matrix(1 0 0 1 116.8283 45)" class="st3 st4 st5">Missing Image</text>
	<g class="st6">
		<circle class="st7" cx="250.4" cy="172" r="96"/>
		<g>
			<path class="st8" d="M222.2,227.2c0,0,0.6-0.8,1.8-1.9c0.6-0.6,1.4-1.3,2.3-2c0.9-0.7,2.1-1.5,3.3-2.2c2.5-1.5,5.7-2.9,9.2-4
				c1.8-0.5,3.7-0.9,5.6-1.2c1-0.1,1.9-0.3,2.9-0.3s2-0.1,3-0.1s1.9,0.1,2.9,0.1c1,0.1,2,0.2,3,0.3c2,0.3,3.8,0.7,5.6,1.2
				c3.6,1,6.7,2.5,9.2,4c1.3,0.8,2.4,1.5,3.3,2.2s1.7,1.4,2.3,2c1.2,1.2,1.8,1.9,1.8,1.9s-0.2-0.1-0.6-0.3s-1-0.4-1.8-0.7
				c-1.6-0.6-3.8-1.3-6.4-2s-5.7-1.5-9-2c-0.8-0.1-1.7-0.3-2.5-0.3c-0.8-0.1-1.7-0.2-2.6-0.3c-0.8-0.1-1.7-0.1-2.6-0.2
				c-0.9,0-1.8,0-2.7-0.1c-0.9,0-1.8,0-2.6,0.1c-0.9,0.1-1.8,0.1-2.6,0.2c-0.9,0.1-1.7,0.2-2.6,0.3c-0.9,0.1-1.7,0.3-2.5,0.3
				c-3.3,0.5-6.4,1.2-9,2c-2.6,0.7-4.9,1.5-6.4,2c-0.8,0.3-1.4,0.5-1.8,0.7C222.4,227.1,222.2,227.2,222.2,227.2z"/>
		</g>
		<g>
			<ellipse class="st8" cx="293.2" cy="173" rx="9.3" ry="17"/>
			<g>
				<path class="st8" d="M279.5,127.9c0,0,0.1,0.1,0.4,0.3c0.2,0.2,0.6,0.6,1,0.9c0.5,0.3,1,0.8,1.7,1.2c0.7,0.5,1.4,0.9,2.3,1.4
					c0.8,0.5,1.8,1,2.8,1.4c1,0.5,2.1,0.9,3.2,1.4s2.3,0.9,3.5,1.3c1.2,0.4,2.5,0.8,3.7,1.2c1.3,0.4,2.5,0.7,3.8,0.9
					s2.5,0.5,3.7,0.8c1.2,0.4,2.3,0.8,3.3,1.3s2,1,2.9,1.5s1.7,1,2.4,1.5c0.7,0.5,1.3,1,1.8,1.4s0.9,0.8,1.2,1
					c0.3,0.2,0.4,0.4,0.4,0.4l-0.2,0.8c0,0-0.2,0.1-0.5,0.2c-0.4,0.1-0.9,0.3-1.5,0.4c-0.6,0.1-1.4,0.3-2.3,0.4
					c-0.9,0.1-1.9,0.2-2.9,0.1c-1.1,0-2.2-0.1-3.4-0.3c-1.2-0.2-2.4-0.4-3.7-0.8c-1.2-0.4-2.5-1-3.7-1.7s-2.4-1.4-3.7-2
					c-1.2-0.7-2.5-1.3-3.7-2.1c-1.2-0.7-2.3-1.5-3.4-2.2c-1.1-0.8-2.1-1.5-3-2.3s-1.8-1.6-2.5-2.3c-0.4-0.4-0.7-0.7-1-1.1
					c-0.3-0.4-0.6-0.7-0.9-1c-0.5-0.7-1-1.3-1.3-1.8c-0.4-0.5-0.5-0.9-0.7-1.2s-0.2-0.4-0.2-0.4L279.5,127.9z"/>
			</g>
			<ellipse class="st8" cx="207.6" cy="173" rx="9.3" ry="17"/>
			<g>
				<path class="st8" d="M221.9,128.4c0,0-0.1,0.1-0.2,0.4c-0.2,0.3-0.4,0.7-0.7,1.2s-0.8,1.2-1.3,1.8c-0.3,0.3-0.6,0.7-0.9,1
					c-0.3,0.4-0.7,0.7-1,1.1c-0.7,0.8-1.6,1.5-2.5,2.3s-2,1.6-3,2.3c-1.1,0.8-2.2,1.5-3.4,2.2s-2.4,1.4-3.7,2.1
					c-1.2,0.7-2.5,1.3-3.7,2s-2.4,1.3-3.7,1.7c-1.2,0.4-2.5,0.7-3.7,0.8c-1.2,0.2-2.3,0.3-3.4,0.3c-1.1,0-2.1,0-2.9-0.1
					c-0.9-0.1-1.7-0.2-2.3-0.4c-0.6-0.1-1.2-0.3-1.5-0.4c-0.4-0.1-0.5-0.2-0.5-0.2l-0.2-0.8c0,0,0.1-0.1,0.4-0.4
					c0.3-0.2,0.7-0.6,1.2-1s1.1-0.9,1.8-1.4s1.5-1,2.4-1.5s1.8-1,2.9-1.5c1-0.5,2.1-1,3.3-1.3c1.2-0.4,2.4-0.6,3.7-0.8
					s2.6-0.5,3.8-0.9s2.5-0.8,3.7-1.2s2.4-0.8,3.5-1.3c1.1-0.4,2.2-0.9,3.2-1.4s2-0.9,2.8-1.4c0.9-0.5,1.6-0.9,2.3-1.4
					c0.7-0.4,1.2-0.9,1.7-1.2s0.8-0.7,1-0.9s0.4-0.3,0.4-0.3L221.9,128.4z"/>
			</g>
		</g>
	</g>
</g>
<g id="Layer_4" class="st2">
	<path class="st9" d="M130.5,126.2l70.5-13.9c8.5-1.7,11.6-12.2,5.4-18.2l-18.4-18c-6.5-6.3-15.6-8.7-24.5-7l-33,6.4V126.2z"/>
	<path class="st10" d="M142.5,268.5V130.7l-12-4.7c0,0,0,133.8,0,136.6c0,5,1.7,7.5,5,9.5c5.7,3.5,13.8,2.7,13.8,2.7L142.5,268.5z"
		/>
	<path class="st9" d="M368.4,232.3l-217.7,42.3c-4.5,0.9-8.1-2.1-8.1-6.6V130.7l234-45.5v137.4C376.5,227.1,372.9,231.5,368.4,232.3
		z"/>
	<polygon class="st9" points="142.5,105.1 376.5,59.6 364.5,54.9 130.5,100.3 	"/>
	<text transform="matrix(1 -0.1944 0 1 159.0814 193.3525)" class="st11 st12 st13">Missing</text>
	<text transform="matrix(1 -0.1944 0 1 182.5814 237.2841)" class="st11 st12 st13">image</text>
	<g class="st6">
		<polygon class="st0" points="376.5,85.3 142.5,130.8 142.5,105.4 376.5,59.9 		"/>
		<polygon class="st14" points="178.6,123.7 161.3,127.1 149.3,104.1 166.6,100.7 		"/>
		<polygon class="st14" points="216.8,116.3 199.4,119.7 187.4,96.7 204.8,93.3 		"/>
		<polygon class="st14" points="254.9,108.9 237.5,112.3 225.5,89.3 242.9,85.9 		"/>
		<polygon class="st14" points="293,101.5 275.6,104.9 263.6,81.9 281,78.5 		"/>
		<polygon class="st14" points="331.1,94.1 313.7,97.5 301.7,74.5 319.1,71.1 		"/>
		<polygon class="st14" points="369.2,86.7 351.8,90.1 339.8,67.1 357.2,63.7 		"/>
	</g>
	<polygon class="st6" points="142.5,130.7 142.5,105.1 130.5,100.3 130.5,126 	"/>
	<g class="st6">
		<polygon class="st14" points="141.6,77.9 371.8,22.6 358.8,18.2 128.7,73.6 		"/>
		<g>
			<polygon class="st0" points="145.9,103.7 376,48.3 371.8,22.6 141.7,78 			"/>
			<polygon class="st14" points="340.5,56.8 357.5,52.7 365.1,24.2 348.1,28.3 			"/>
			<polygon class="st14" points="303,65.8 320,61.7 327.7,33.2 310.6,37.3 			"/>
			<polygon class="st14" points="265.5,74.9 282.6,70.7 290.2,42.2 273.1,46.3 			"/>
			<polygon class="st14" points="228,83.9 245.1,79.8 252.7,51.3 235.6,55.4 			"/>
			<polygon class="st14" points="190.6,92.9 207.6,88.8 215.2,60.3 198.2,64.4 			"/>
			<polygon class="st14" points="153.1,101.9 170.1,97.8 177.7,69.3 160.7,73.4 			"/>
		</g>
		<polygon points="145.9,103.7 141.7,78 128.7,73.6 132.8,99 		"/>
	</g>
	<path class="st15" d="M142.5,130.7L213,117c8.5-1.7,11.6-12.4,5.4-18.5l-18.4-18c-6.5-6.3-15.6-10.7-24.5-8.9l-33,6.4V130.7z"/>
	<path class="st11" d="M160.4,88.2c0,4.1-3.3,8.1-7.5,8.9s-7.5-1.9-7.5-6s3.3-8.1,7.5-8.9C157,81.4,160.4,84.1,160.4,88.2z"/>
	<path class="st11" d="M218.4,106.2c0,4.1-3.3,8.1-7.5,8.9s-7.5-1.9-7.5-6s3.3-8.1,7.5-8.9C215,99.4,218.4,102.1,218.4,106.2z"/>
</g>
<g id="Layer_5" class="st2">
	<circle class="st16" cx="250.4" cy="160" r="93"/>
	<g class="st6">
		<path class="st8" d="M143.7,131.4c0,0,0.4-0.5,1.1-1.5c0.7-1,1.8-2.4,3.4-4.1c1.6-1.7,3.7-3.8,6.7-5.6c1.5-0.9,3.3-1.7,5.4-2.1
			c2.1-0.4,4.5-0.2,6.8,0.6c2.3,0.8,4.5,2.3,6.4,4.1c1.9,1.8,3.6,3.9,5.1,6.2c3,4.6,5.3,10,7.4,15.9c2,5.9,3.6,12.2,4.9,19
			c0.7,3.4,1,6.9,1.2,10.5s0.4,7.3,0.4,11.1s-0.1,7.7-0.4,11.7c-0.4,4-0.9,8.1-2.4,12.6c-0.4,1.1-0.9,2.3-1.6,3.5
			c-0.3,0.6-0.7,1.2-1.3,1.9c-0.5,0.6-1.2,1.3-2.1,1.9c-0.9,0.6-2,1.1-3.3,1.3c-1.2,0.2-2.5,0-3.5-0.3c-0.5-0.2-1-0.3-1.4-0.5
			l-0.3-0.2l-0.3-0.2l-0.3-0.2c-0.3-0.2-0.7-0.4-1-0.7c-0.3-0.2-0.6-0.4-0.9-0.7c-2.2-1.8-3.8-4.1-4.9-6.4c-1.1-2.3-1.8-4.6-2.4-6.9
			c-1-4.6-1.3-9.2-1.3-13.8c0.1-4.6,0.5-9.1,1.2-13.7c1.4-9.1,3.7-18.2,6.9-27.1c3.2-8.9,7.2-17.8,12.5-26.2c2.7-4.2,5.7-8.2,9.1-12
			c3.5-3.8,7.5-7.3,12.2-10c2.3-1.4,4.9-2.5,7.6-3.3c1.3-0.4,2.7-0.7,4.1-1c0.7-0.1,1.4-0.2,2.1-0.3h0.5h0.4h0.2h0.9
			c5.6-0.2,11.3,1,16.4,3.6c5.1,2.6,9.2,6.5,12.5,10.7c3.3,4.3,5.9,8.9,8,13.7c4.2,9.5,6.6,19.4,8.3,29.3c0.8,5,1.5,9.9,1.9,14.9
			c0.2,2.5,0.4,5,0.5,7.5c0.1,1.3,0.1,2.5,0.1,3.8c0,0.7,0,1.3,0,2.1c0,0.3,0,0.6-0.1,1c0,0.4-0.1,0.8-0.1,1.1
			c-0.3,2.8-1,5.7-2.3,8.4s-3.2,5.4-6.2,7.3c-1.5,1-3.2,1.7-5.1,2s-4,0.1-5.8-0.6c-1.8-0.7-3.3-1.8-4.6-3c-1.2-1.2-2.1-2.6-2.8-4
			c-1.4-2.8-2.1-5.5-2.4-8.2c-0.2-1.3-0.3-2.7-0.3-4v-1c0-0.2,0-0.7,0-1.1c0-0.7,0.1-1.4,0.2-2c0.3-2.6,0.8-5,1.4-7.4
			c0.6-2.4,1.2-4.7,1.9-7c1.4-4.6,3.2-9.1,5.2-13.4c2.1-4.3,4.5-8.4,7.5-12.3c3-3.8,6.6-7.3,11.1-9.8c2.2-1.2,4.7-2.2,7.2-2.7
			c1.3-0.3,2.6-0.4,3.8-0.5c0.6,0,1.3-0.1,1.9,0h0.5h0.5h0.8c1.3,0.1,2.5,0.2,3.7,0.4c1.2,0.2,2.4,0.5,3.6,0.8
			c2.4,0.7,4.7,1.7,6.8,3c4.2,2.7,7.4,6.5,9.6,10.4c2.2,3.9,3.7,7.9,4.8,11.8c1.1,3.9,2,7.7,2.8,11.3c0.8,3.7,1.4,7.2,1.8,10.7
			c0.5,3.5,1,6.8,1.5,10.1c1.1,6.5,2.6,12.4,4.8,17.6c2.2,5.2,5.2,9.5,8.9,12.7c3.6,3.2,7.8,5.1,11.8,6.3s7.7,1.7,11,1.9
			s6.1,0.2,8.4,0.1c2.3-0.1,4.1-0.2,5.2-0.3c1.2-0.1,1.8-0.2,1.8-0.2s-0.6,0.1-1.8,0.4c-1.2,0.2-2.9,0.6-5.2,1
			c-2.3,0.3-5.1,0.7-8.5,0.8s-7.3,0.1-11.7-0.8c-4.4-0.8-9.2-2.5-13.8-5.7c-4.6-3.2-8.6-7.9-11.6-13.5s-5.2-11.9-7-18.6
			c-0.9-3.3-1.7-6.7-2.5-10.2c-0.4-1.7-0.8-3.5-1.2-5.2c-0.3-1.8-0.7-3.5-1-5.3c-0.6-3.6-1.4-7.1-2.4-10.6s-2.3-6.9-4-9.9
			s-3.9-5.5-6.6-7.2c-1.4-0.9-2.9-1.5-4.5-2c-0.8-0.2-1.7-0.4-2.5-0.6c-0.9-0.2-1.8-0.2-2.6-0.3l-0.8-0.1l-0.3-0.1H281
			c-0.4,0-0.8,0.1-1.3,0.1c-0.8,0.1-1.7,0.2-2.5,0.4c-1.6,0.3-3.2,1-4.8,1.8c-3.1,1.7-5.9,4.4-8.4,7.5s-4.6,6.8-6.5,10.6
			s-3.4,7.9-4.8,12.1c-1.3,4.2-2.4,8.6-2.9,12.8c-0.1,0.5-0.1,1-0.1,1.5c0,0.2,0,0.3,0,0.6v0.7c0,1,0.1,2.1,0.2,3
			c0.3,2,0.8,3.8,1.5,5.3s1.8,2.4,2.6,2.7s1.7,0.2,2.8-0.5c1.1-0.7,2.2-2,2.9-3.6c0.8-1.6,1.2-3.5,1.5-5.5c0-0.3,0-0.5,0.1-0.7
			c0-0.2,0-0.6,0-0.8c0-0.4,0-1,0-1.6c0-1.1,0-2.3-0.1-3.5c-0.1-2.3-0.3-4.7-0.5-7.1c-0.4-4.7-1-9.5-1.8-14.2
			c-1.6-9.4-3.9-18.7-7.7-27.2c-1.9-4.2-4.1-8.3-6.8-11.7c-2.7-3.5-5.9-6.4-9.6-8.3c-3.6-1.9-7.8-2.7-11.9-2.6H222h-0.2
			c-0.1,0,0.1,0-0.1,0h-0.4c-0.5,0-1,0.1-1.5,0.2c-1,0.2-2,0.4-3,0.7c-2,0.6-3.9,1.4-5.7,2.5c-3.7,2.1-7,5-10.1,8.3
			c-3,3.3-5.7,6.9-8.1,10.7c-4.8,7.6-8.6,15.9-11.6,24.3s-5.2,17-6.4,25.4c-0.6,4.2-1,8.4-1.1,12.5s0.2,8.1,1,11.7
			c0.8,3.6,2.3,6.8,4.2,8.4c0.1,0.1,0.2,0.2,0.4,0.3l0.3,0.2l0.3,0.2c0,0,0.2,0.1,0,0l0,0c0.1,0,0.1,0,0.1,0s-0.2-0.1-0.5,0
			c-0.2,0-0.4,0.1-0.5,0.2c-0.1,0.1,0.3-0.2,0.6-0.8c0.3-0.5,0.6-1.2,0.9-2c1.1-3.1,1.6-6.8,1.9-10.4c0.3-3.6,0.4-7.3,0.4-10.8
			c0-3.6-0.2-7.1-0.5-10.5s-0.7-6.7-1-10c-0.6-6.5-1.5-12.7-2.8-18.3s-3-10.8-5.1-15.2c-2.1-4.4-4.9-8-8.3-9.6
			c-3.3-1.7-7-1.1-9.9,0.1c-2.9,1.3-5.2,3-7,4.4c-1.8,1.5-3,2.7-3.9,3.5C144.1,130.9,143.7,131.4,143.7,131.4z"/>
	</g>
	<text transform="matrix(1 0 0 1 116.8283 45)" class="st3 st4 st5">Missing Image</text>
</g>
<g id="Layer_6" class="st2">
	<g class="st6">
		<rect x="108.1" y="76" class="st17" width="283.8" height="180.9"/>
		<path class="st18" d="M266.9,212c0,0,7.2-60.5,27.1-66.2s32.3,25.5,39.9,23.2s11.2-40.3,25.5-53.6s29.7,0,29.7,0L389,255H262.7
			L266.9,212z"/>
		<path class="st0" d="M209,255.9c0,0,41-13.9,45-33.9s11-56.6,34-56.6s23,40.6,40,40.6s32,49.9,54,49.9"/>
		<circle class="st19" cx="145.5" cy="109" r="14.5"/>
		<rect x="147.6" y="148.3" class="st18" width="24.8" height="105.7"/>
		<polygon class="st20" points="268,239 268,213 230,213 230,156 224,156 224,150 211,150 211,156 201,156 201,213 195,213 195,176 
			166,176 166,222 139,222 139,254 190,254 255,254 268,254 304,254 304,239 		"/>
		<polygon class="st21" points="137,212 137,208 130,208 130,205 119,205 119,208 117,208 117,212 111,212 111,254 160,254 160,212 
					"/>
	</g>
	<text transform="matrix(1 0 0 1 116.8283 45)" class="st3 st4 st5">Missing Image</text>
</g>
<g id="Layer_7" class="st2">
	<rect x="394.4" y="140" class="st3" width="111.3" height="160"/>
</g>
<circle class="st1" cx="402.6" cy="86.4" r="36.4"/>
<path class="st22" d="M0,0.7v298.7h500V0.7H0z M480.6,278.5H19.4v-257h461.2V278.5z"/>
</svg>
